# Alias OBJ Model File
# Exported from SketchUp, (c) 2000-2012 Trimble Navigation Limited
# File units = meters

mtllib walls.mtl

g Mesh1 Group1 Model

usemtl myTransparent
v 10 0 -10
vt -59.0551 8.35165
vn -0.989949 0.141421 -1.47461e-16
v 10 0 10
vt 728.346 8.35165
v 11 7 10
vt 728.346 286.74
v 11 7 -10
vt -59.0551 286.74
f 1/1/1 2/2/1 3/3/1 4/4/1 

vt 445.422 332.951
vn -0.703526 0.100504 -0.703526
vt 473.26 55.9582
v 10 7 11
vt 501.099 332.951
f 3/5/2 2/6/2 5/7/2

v -10 7 11
vt 728.346 381.392
vn -9.47195e-17 0.141421 -0.989949
vt -59.0551 381.392
vt -59.0551 103.004
v -10 0 10
vt 728.346 103.004
f 6/8/3 5/9/3 2/10/3 7/11/3 

v -10 12 11
vt 728.346 472.441
vn 0 0 -1
v 10 12 11
vt -59.0551 472.441
vt -59.0551 275.591
vt 728.346 275.591
f 8/12/4 9/13/4 5/14/4 6/15/4 

vt 501.099 472.441
vn -0.707107 2.38587e-31 -0.707107
v 11 12 10
vt 445.422 472.441
vt 445.422 275.591
vt 501.099 275.591
f 9/16/5 10/17/5 3/18/5 5/19/5 

vn -1 0 -2.98655e-16
v 11 12 -10
f 4/14/6 3/15/6 10/12/6 11/13/6 

vt 27.8388 472.441
vn -0.707107 -1.03727e-16 0.707107
v 10 12 -11
vt -27.8388 472.441
v 10 7 -11
vt -27.8388 275.591
vt 27.8388 275.591
f 11/20/7 12/21/7 13/22/7 4/23/7 

v -10 7 -11
vt -728.346 275.591
vn -8.95965e-16 -2.88765e-16 1
vt 59.0551 275.591
vt 59.0551 472.441
v -10 12 -11
vt -728.346 472.441
f 14/24/8 13/25/8 12/26/8 15/27/8 

v -10 -7.21911e-16 -10
vt -728.346 8.35165
vn -8.97139e-16 0.141421 0.989949
vt 59.0551 8.35165
vt 59.0551 286.74
vt -728.346 286.74
f 16/28/9 1/29/9 13/30/9 14/31/9 

vt 27.8388 285.387
vn -0.703526 0.100504 0.703526
vt -27.8388 285.387
vt 8.88178e-13 8.39373
f 4/32/10 13/33/10 1/34/10

vt -445.422 332.951
vn 0.703526 0.100504 0.703526
v -11 7 -10
vt -501.099 332.951
vt -473.26 55.9582
f 14/35/11 17/36/11 16/37/11

vt -445.422 472.441
vn 0.707107 -1.03727e-16 0.707107
v -11 12 -10
vt -501.099 472.441
vt -501.099 275.591
vt -445.422 275.591
f 15/38/12 18/39/12 17/40/12 14/41/12 

v -11 7 10
vn 1 -1.99921e-32 1.49328e-16
v -11 12 10
f 19/24/13 17/25/13 18/26/13 20/27/13 

vt -728.346 103.004
vn 0.989949 0.141421 5.32797e-17
vt 59.0551 103.004
vt 59.0551 381.392
vt -728.346 381.392
f 7/42/14 16/43/14 17/44/14 19/45/14 

vt 27.8388 380.516
vn -0.703526 -0.100504 0.703526
vt -27.8388 380.516
vt 3.46745e-12 103.523
f 6/46/15 19/47/15 7/48/15

vn 0.707107 -2.03305e-16 -0.707107
f 20/20/16 8/21/16 6/22/16 19/23/16 

g Mesh2 Group1 Model

v 4.18593 13.2564 -6.39304
vt 61.4433 521.907
vn 0.707107 -7.97098e-19 -0.707107
v 4.18593 1.08287e-15 -6.39304
vt 61.4433 4.24901e-14
v 3.12527 1.08287e-15 -7.4537
vt 120.498 4.24901e-14
v 3.12527 12.9672 -7.4537
vt 120.498 510.519
f 21/49/17 22/50/17 23/51/17 24/52/17 

v 3.9738 1.08287e-15 -6.1809
vt -190.565 4.26481e-14
vn 0.707107 2.52766e-19 0.707107
vt -178.754 4.26481e-14
vt -178.754 521.907
v 3.9738 13.3143 -6.1809
vt -190.565 524.185
f 25/53/18 22/54/18 21/55/18 26/56/18 

vt -61.4433 524.185
vn -0.707107 0 0.707107
v 2.91314 13.025 -7.24156
vt -120.498 512.796
v 2.91314 1.08287e-15 -7.24156
vt -120.498 4.26326e-14
vt -61.4433 4.26326e-14
f 26/57/19 27/58/19 28/59/19 25/60/19 

vt 190.565 512.796
vn -0.707107 -1.71693e-19 -0.707107
vt 178.754 510.519
vt 178.754 4.26533e-14
vt 190.565 4.26533e-14
f 27/61/20 24/62/20 23/63/20 28/64/20 

g Mesh3 Group1 Model

v 7.4537 12.9672 -3.12527
vt -120.498 510.519
v 7.4537 1.80478e-15 -3.12527
vt -120.498 7.09118e-14
v 6.39304 1.80478e-15 -4.18593
vt -61.4433 7.09118e-14
v 6.39304 13.2564 -4.18593
vt -61.4433 521.907
f 29/65/17 30/66/17 31/67/17 32/68/17 

v 7.24156 1.80478e-15 -2.91314
vt -190.565 7.1075e-14
vn 0.707107 -1.71693e-19 0.707107
vt -178.754 7.1075e-14
vt -178.754 510.519
v 7.24156 13.025 -2.91314
vt -190.565 512.796
f 33/69/21 30/70/21 29/71/21 34/72/21 

v 6.1809 13.3143 -3.9738
vt 61.4433 524.185
vn -0.707107 -7.02321e-19 0.707107
v 6.1809 1.80478e-15 -3.9738
vt 61.4433 7.11881e-14
vt 120.498 7.11881e-14
vt 120.498 512.796
f 35/73/22 36/74/22 33/75/22 34/76/22 

vt 190.565 7.10543e-14
vn -0.707107 0 -0.707107
vt 190.565 524.185
vt 178.754 521.907
vt 178.754 7.10543e-14
f 36/77/23 35/78/23 32/79/23 31/80/23 

g Mesh4 Group1 Model

v 6.39304 13.2564 4.18593
vt -411.817 521.907
vn 0.707107 -7.97098e-19 0.707107
v 6.39304 1.80478e-15 4.18593
vt -411.817 7.1289e-14
v 7.4537 1.80478e-15 3.12527
vt -352.762 7.1289e-14
v 7.4537 12.9672 3.12527
vt -352.762 510.519
f 37/81/24 38/82/24 39/83/24 40/84/24 

v 6.1809 1.80478e-15 3.9738
vt 282.695 7.12295e-14
vn -0.707107 -4.2549e-19 0.707107
vt 294.506 7.12295e-14
vt 294.506 521.907
v 6.1809 13.3143 3.9738
vt 282.695 524.185
f 41/85/25 38/86/25 37/87/25 42/88/25 

v 7.24156 13.025 2.91314
vt 352.762 512.796
vn -0.707107 -2.19475e-18 -0.707107
v 7.24156 1.80478e-15 2.91314
vt 352.762 7.04338e-14
vt 411.817 7.04338e-14
vt 411.817 524.185
f 43/89/26 44/90/26 41/91/26 42/92/26 

vt -282.695 7.11148e-14
vn 0.707107 1.71693e-19 -0.707107
vt -282.695 512.796
vt -294.506 510.519
vt -294.506 7.11148e-14
f 44/93/27 43/94/27 40/95/27 39/96/27 

g Mesh5 Group1 Model

v 2.91314 13.025 7.24156
vt 282.695 512.796
v 2.91314 1.80478e-15 7.24156
vt 282.695 7.10543e-14
v 3.12527 1.44382e-15 7.4537
vt 294.506 5.68434e-14
v 3.12527 12.9672 7.4537
vt 294.506 510.519
f 45/97/19 46/98/19 47/99/19 48/100/19 

v 3.9738 13.3143 6.1809
vt 534.704 524.185
vn -0.707107 -4.0998e-17 -0.707107
v 3.9738 1.80478e-15 6.1809
vt 534.704 5.94643e-14
vt 593.759 5.94643e-14
vt 593.759 512.796
f 49/101/28 50/102/28 46/103/28 45/104/28 

v 4.18593 13.2564 6.39304
vt -294.506 521.907
vn 0.707107 -3.9124e-17 -0.707107
v 4.18593 1.80478e-15 6.39304
vt -294.506 5.01345e-14
vt -282.695 5.01345e-14
vt -282.695 524.185
f 51/105/29 52/106/29 50/107/29 49/108/29 

vt -593.759 5.66348e-14
vn 0.707107 7.08532e-19 0.707107
vt -534.704 7.08456e-14
vt -534.704 521.907
vt -593.759 510.519
f 47/109/30 52/110/30 51/111/30 48/112/30 

g Mesh6 Group1 Model

v -4.18593 13.2564 6.39304
vt -767.767 521.907
vn 0.707107 0 0.707107
v -4.18593 1.80478e-15 6.39304
vt -767.767 7.10543e-14
v -3.9738 1.80478e-15 6.1809
vt -755.956 7.10543e-14
v -3.9738 13.3143 6.1809
vt -755.956 524.185
f 53/113/31 54/114/31 55/115/31 56/116/31 

v -3.12527 12.9672 7.4537
vn -0.707107 -7.97098e-19 0.707107
vt 61.4433 7.16663e-14
v -3.12527 1.80478e-15 7.4537
vt 120.498 7.16663e-14
f 57/52/32 53/49/32 54/117/32 58/118/32 

vt -767.767 510.519
vn 0.707107 3.87763e-17 0.707107
vt -767.767 6.63818e-14
v -2.91314 1.80478e-15 7.24156
vt -755.956 6.63818e-14
v -2.91314 13.025 7.24156
vt -755.956 512.796
f 57/119/33 58/120/33 59/121/33 60/122/33 

vn 0.707107 -3.85399e-17 -0.707107
vt -120.498 4.19198e-14
vt -61.4433 4.19198e-14
f 56/57/34 60/58/34 59/123/34 55/124/34 

g Mesh7 Group1 Model

v -7.24156 13.025 2.91314
vt 755.956 512.796
v -7.24156 1.80478e-15 2.91314
vt 755.956 7.10543e-14
v -7.4537 1.80478e-15 3.12527
vt 767.767 7.10543e-14
v -7.4537 12.9672 3.12527
vt 767.767 510.519
f 61/125/23 62/126/23 63/127/23 64/128/23 

v -6.1809 13.3143 3.9738
vn 0.707107 8.77901e-19 -0.707107
v -6.1809 1.80478e-15 3.9738
vt 61.4433 7.17179e-14
vt 120.498 7.17179e-14
f 65/73/35 66/129/35 62/130/35 61/76/35 

v -6.39304 13.2564 4.18593
v -6.39304 1.80478e-15 4.18593
f 67/113/31 68/114/31 66/115/31 65/116/31 

vt -61.4433 6.98303e-14
vn -0.707107 1.5942e-18 0.707107
vt -120.498 6.98303e-14
f 68/131/36 67/68/36 64/65/36 63/132/36 

g Mesh8 Group1 Model

v -4.18593 7.21911e-16 -6.39304
vt 411.817 2.9152e-14
vn -0.707107 -2.47986e-18 -0.707107
v -4.18593 13.2564 -6.39304
vt 411.817 521.907
v -3.12527 12.9672 -7.4537
vt 352.762 510.519
v -3.12527 7.21911e-16 -7.4537
vt 352.762 2.9152e-14
f 69/133/37 70/134/37 71/135/37 72/136/37 

v -3.9738 7.21911e-16 -6.1809
vt -282.695 2.84911e-14
vn -0.707107 -1.68511e-19 0.707107
v -3.9738 13.3143 -6.1809
vt -294.506 2.84911e-14
f 73/137/38 74/108/38 70/105/38 69/138/38 

vt -411.817 524.185
vn 0.707107 8.77901e-19 0.707107
vt -411.817 2.86699e-14
v -2.91314 7.21911e-16 -7.24156
vt -352.762 2.86699e-14
v -2.91314 13.025 -7.24156
vt -352.762 512.796
f 74/139/39 73/140/39 75/141/39 76/142/39 

vt 282.695 2.83611e-14
vn 0.707107 -1.71693e-19 -0.707107
vt 294.506 2.83611e-14
f 75/143/40 72/144/40 71/100/40 76/97/40 

g Mesh9 Group1 Model

v -7.24156 13.025 -2.91314
vt -593.759 512.796
vn 0.707107 -7.02321e-19 0.707107
v -7.24156 1.44382e-15 -2.91314
vt -593.759 5.66449e-14
v -6.1809 1.44382e-15 -3.9738
vt -534.704 5.66449e-14
v -6.1809 13.3143 -3.9738
vt -534.704 524.185
f 77/145/41 78/146/41 79/147/41 80/148/41 

v -7.4537 0.02 -3.12527
vt -294.506 0.787402
vt -282.695 5.68434e-14
v -7.4537 12.9672 -3.12527
f 81/149/19 78/150/19 77/94/19 82/95/19 

v -6.39304 0 -4.18593
vt 534.704 2.35105e-16
vn -0.707107 -7.98302e-19 -0.707107
vt 593.759 0.787402
vt 593.759 510.519
v -6.39304 13.2564 -4.18593
vt 534.704 521.907
f 83/151/42 81/152/42 82/153/42 84/154/42 

vt 282.695 5.69313e-14
vn 0.707107 1.64298e-19 -0.707107
vt 294.506 8.78508e-17
f 79/155/43 83/156/43 84/87/43 80/88/43 

g Mesh10 Group1 Model

v 0.405859 0 8.57596
vt -701.09 -32.3377
vn 0.986434 -0.129888 0.100385
v 0.811719 3.08229 8.57596
vt -699.472 90.0491
v 0.75 3 9.07596
vt -719.302 86.7816
f 85/157/44 86/158/44 87/159/44

v -0.811719 3.08229 8.57596
vt 366.603 121.35
vt 302.688 121.35
vt 318.667 0
v -0.405859 0 8.57596
vt 350.624 0
f 88/160/4 86/161/4 85/162/4 89/163/4 

vt 631.711 176.536
vn -0.986434 -0.129888 0.100385
vt 633.329 54.1487
v -0.75 3 9.07596
vt 651.541 173.268
f 88/164/45 89/165/45 90/166/45

vt 649.406 48.4529
vn -0.990422 -0.123803 0.0611276
v -0.375 -3.60956e-16 9.07596
vt 669.129 48.4529
vt 668.219 167.479
f 89/167/46 91/168/46 90/169/46

vt -364.173 118.11
vn 0 0 1
vt -349.409 -1.42109e-14
v 0.375 -3.60956e-16 9.07596
vt -319.882 -1.42109e-14
vt -305.118 118.11
f 90/170/47 91/171/47 92/172/47 87/173/47 

vt -710.358 -34.2498
vn 0.990422 -0.123803 0.0611276
vt -690.635 -34.2498
vt -709.448 84.7761
f 92/174/48 85/175/48 87/176/48

g Mesh11 Group1 Model

v -9.07596 -3.60956e-16 0.375
vt 349.409 -1.80724e-13
vn -1 2.40637e-16 -1.54008e-15
v -9.07596 3 0.75
vt 364.173 118.11
v -9.07596 3 -0.75
vt 305.118 118.11
v -9.07596 -7.21911e-16 -0.375
vt 319.882 -1.94935e-13
f 93/177/49 94/178/49 95/179/49 96/180/49 

v -8.57596 0 0.405859
vt -649.406 48.4529
vn -0.0611276 -0.123803 0.990422
vt -668.219 167.479
vt -669.129 48.4529
f 97/181/50 94/182/50 93/183/50

vt -651.541 173.268
vn -0.100385 -0.129888 0.986434
vt -633.329 54.1487
v -8.57596 3.08229 0.811719
vt -631.711 176.536
f 94/184/51 97/185/51 98/186/51

v -8.57596 3.08229 -0.811719
vt -302.688 121.35
vn 1 5.21676e-31 2.13447e-15
vt -366.603 121.35
vt -350.624 3.50713e-28
v -8.57596 -3.60956e-16 -0.405859
vt -318.667 -1.42109e-14
f 99/187/52 98/188/52 97/189/52 100/190/52 

vt 701.09 -32.3377
vn -0.100385 -0.129888 -0.986434
vt 719.302 86.7816
vt 699.472 90.0491
f 100/191/53 95/192/53 99/193/53

vt 709.448 84.7761
vn -0.0611276 -0.123803 -0.990422
vt 690.635 -34.2498
vt 710.358 -34.2498
f 95/194/54 100/195/54 96/196/54

g Mesh12 Group1 Model

v -0.75 3 -9.07596
vt 14.3111 164.467
vn -0.986434 -0.129888 -0.100385
v -0.405859 -1.08287e-15 -8.57596
vt 32.5232 45.3473
v -0.811719 3.08229 -8.57596
vt 34.141 167.734
f 101/197/55 102/198/55 103/199/55

v -0.375 -1.44382e-15 -9.07596
vt -1.10827 43.3486
vn -0.990422 -0.123803 -0.0611276
vt 18.6142 43.3486
vt -0.198798 162.375
f 104/200/56 102/201/56 101/202/56

vn 1.15506e-14 -1.01544e-31 -1
v 0.75 3 -9.07596
v 0.375 -1.08287e-15 -9.07596
vt 319.882 -4.26326e-14
vt 349.409 -5.68434e-14
f 101/178/57 105/179/57 106/203/57 104/204/57 

vt 41.4281 79.6718
vn 0.990422 -0.123803 -0.0611276
v 0.405859 -7.21911e-16 -8.57596
vt 22.6151 -39.3541
vt 42.3376 -39.3541
f 105/205/58 107/206/58 106/207/58

vt 35.2379 -41.1391
vn 0.986434 -0.129888 -0.100385
vt 53.45 77.9803
v 0.811719 3.08229 -8.57596
vt 33.6201 81.2478
f 107/208/59 105/209/59 108/210/59

vn -1.28068e-14 1.54385e-31 1
vt -350.624 -4.26326e-14
vt -318.667 -2.84217e-14
f 108/187/60 103/188/60 102/211/60 107/212/60 

g Mesh13 Group1 Model

v 8.57596 0 -0.405859
vt -22.6151 -39.3541
vn 0.0611276 -0.123803 -0.990422
v 9.07596 3 -0.75
vt -41.4281 79.6718
v 9.07596 -3.60956e-16 -0.375
vt -42.3376 -39.3541
f 109/213/61 110/214/61 111/215/61

vt -53.45 77.9803
vn 0.100385 -0.129888 -0.986434
vt -35.2379 -41.1391
v 8.57596 3.08229 -0.811719
vt -33.6201 81.2478
f 110/216/62 109/217/62 112/218/62

v 8.57596 0 0.405859
vn -1 0 -2.13447e-15
v 8.57596 3.08229 0.811719
f 113/163/63 114/160/63 112/161/63 109/162/63 

vt -34.141 167.734
vn 0.100385 -0.129888 0.986434
vt -32.5232 45.3473
v 9.07596 3 0.75
vt -14.3111 164.467
f 114/219/64 113/220/64 115/221/64

v 9.07596 -3.60956e-16 0.375
vt 1.10827 43.3486
vn 0.0611276 -0.123803 0.990422
vt 0.198798 162.375
vt -18.6142 43.3486
f 116/222/65 115/223/65 113/224/65

vn 1 -9.62549e-16 3.08016e-15
vt -349.409 7.61538e-15
vt -319.882 7.61538e-15
f 115/170/66 116/225/66 111/226/66 110/173/66 

g Mesh14 Group1 Model

v 4.76734 2 -2
vt -255.906 78.7402
vn 1 -5.71187e-32 1.44382e-15
v 4.76734 2 2
vt -413.386 78.7402
v 4.76734 0 2
vt -413.386 -8.3939e-30
v 4.76734 -3.60956e-16 -2
vt -255.906 -1.42109e-14
f 117/227/67 118/228/67 119/229/67 120/230/67 

v 4.46734 2 2
vt -158.766 78.7402
v 4.46734 0 2
vt -158.766 0
vt -146.955 0
vt -146.955 78.7402
f 121/231/47 122/232/47 119/233/47 118/234/47 

v 4.46734 2 -2
vt 255.906 78.7402
vn -1 -7.21911e-16 -3.60956e-16
v 4.46734 0 -2
vt 255.906 1.14615e-13
vt 413.386 1.14615e-13
vt 413.386 78.7402
f 123/235/68 124/236/68 122/237/68 121/238/68 

vt 158.766 0
vt 158.766 78.7402
vt 146.955 78.7402
vt 146.955 -1.42109e-14
f 124/239/4 123/240/4 117/241/4 120/242/4 

g Mesh15 Group1 Model

v -2 2 4.76734
v -2 -3.60956e-16 4.76734
vt -413.386 -1.42109e-14
v 2 -3.60956e-16 4.76734
v 2 2 4.76734
f 125/228/47 126/243/47 127/230/47 128/227/47 

v -2 -3.60956e-16 4.46734
vt 510.525 -1.42109e-14
vn -1 0 -0
vt 522.336 -1.42109e-14
vt 522.336 78.7402
v -2 2 4.46734
vt 510.525 78.7402
f 129/244/69 126/245/69 125/246/69 130/247/69 

v 2 -3.60956e-16 4.46734
vt 255.906 -1.42109e-14
vt 413.386 -1.42109e-14
v 2 2 4.46734
f 131/248/4 129/249/4 130/238/4 132/235/4 

vt -522.336 -1.42109e-14
vn 1 0 -0
vt -510.525 -1.42109e-14
vt -510.525 78.7402
vt -522.336 78.7402
f 127/250/70 131/251/70 132/252/70 128/253/70 

g Mesh16 Group1 Model

v -4.76734 2 2
vn -1 0 -7.21911e-16
v -4.76734 2 -2
v -4.76734 -3.60956e-16 -2
v -4.76734 -3.60956e-16 2
f 133/238/71 134/235/71 135/248/71 136/249/71 

v -4.46734 -3.60956e-16 -2
v -4.46734 2 -2
f 137/244/4 135/245/4 134/246/4 138/247/4 

v -4.46734 -3.60956e-16 2
v -4.46734 2 2
f 139/243/70 137/230/70 138/227/70 140/228/70 

f 136/250/47 139/251/47 140/252/47 133/253/47 

g Mesh17 Group1 Model

v -2 -1.44382e-15 -4.46734
vt -413.386 2.94923e-13
vn -1.03177e-15 -2.21562e-15 1
v 2.19341 -1.44382e-15 -4.46734
vt -248.291 2.94923e-13
v 2 2 -4.46734
v -2 2 -4.46734
f 141/254/72 142/255/72 143/227/72 144/228/72 

vt -158.766 23.8992
vn 0.995357 0.0962547 -6.27155e-17
v 2.19341 -1.44382e-15 -4.76734
vt -146.955 23.8992
v 2 2 -4.76734
vt -146.955 103.007
vt -158.766 103.007
f 142/256/73 145/257/73 146/258/73 143/259/73 

vt 248.291 -5.68434e-14
v -2 -1.44382e-15 -4.76734
vt 413.386 -5.68434e-14
v -2 2 -4.76734
f 145/260/4 147/261/4 148/238/4 146/235/4 

vt 146.955 -5.68434e-14
vt 158.766 -5.68434e-14
f 147/262/69 141/263/69 144/240/69 148/241/69 

g Mesh18 Group1 Model

v 1.5 0 -0.5
vt 314.961 0
vn -1 0 -2.88765e-15
v 1.5 0 0.5
vt 354.331 0
v 1.5 4 0.5
vt 354.331 157.48
v 1.5 4 -0.5
vt 314.961 157.48
f 149/264/74 150/265/74 151/266/74 152/267/74 

vt -275.591 0
v 1.7 0 0.5
vt -267.717 0
v 1.7 4 0.5
vt -267.717 157.48
vt -275.591 157.48
f 150/268/47 153/269/47 154/270/47 151/271/47 

vt -354.331 0
vn 1 0 2.88765e-15
v 1.7 0 -0.5
vt -314.961 0
v 1.7 4 -0.5
vt -314.961 157.48
vt -354.331 157.48
f 153/272/75 155/273/75 156/274/75 154/275/75 

vt 267.717 0
vt 275.591 0
vt 275.591 157.48
vt 267.717 157.48
f 155/276/4 149/277/4 152/278/4 156/279/4 

g Mesh19 Group1 Model

v -0.5 0 1.7
v 0.5 0 1.7
v 0.5 4 1.7
v -0.5 4 1.7
f 157/272/47 158/273/47 159/274/47 160/275/47 

vt -401.575 0
v 0.5 0 1.5
vt -393.701 0
v 0.5 4 1.5
vt -393.701 157.48
vt -401.575 157.48
f 158/280/70 161/281/70 162/282/70 159/283/70 

v -0.5 0 1.5
v -0.5 4 1.5
f 161/264/4 163/265/4 164/266/4 162/267/4 

vt 393.701 0
vt 401.575 0
vt 401.575 157.48
vt 393.701 157.48
f 163/284/69 157/285/69 160/286/69 164/287/69 

g Mesh20 Group1 Model

v -1.5 0 0.5
vt -354.331 6.66321e-28
vn 1 1.69245e-30 4.33147e-15
v -1.5 -3.60956e-16 -0.5
vt -314.961 -1.42109e-14
v -1.5 4 -0.5
v -1.5 4 0.5
f 165/288/76 166/289/76 167/274/76 168/275/76 

vt 393.701 -1.27898e-13
vn 0 -3.60956e-16 -1
v -1.7 -3.60956e-16 -0.5
vt 401.575 -1.27898e-13
v -1.7 4 -0.5
f 166/290/77 169/291/77 170/286/77 167/287/77 

vt 314.961 -1.42109e-14
vn -1 -1.69245e-30 -4.33147e-15
v -1.7 0 0.5
vt 354.331 6.79647e-28
v -1.7 4 0.5
f 169/292/78 171/293/78 172/266/78 170/267/78 

vt -401.575 -1.27898e-13
vn 0 3.60956e-16 1
vt -393.701 -1.27898e-13
f 171/294/79 165/295/79 168/282/79 172/283/79 

g Mesh21 Group1 Model

v -0.5 -1.08287e-15 -1.5
vt -354.331 -4.26326e-14
vn -4.33147e-15 -1.52699e-30 1
v 0.5 -7.21911e-16 -1.5
vt -314.961 -2.84217e-14
v 0.5 4 -1.5
v -0.5 4 -1.5
f 173/296/80 174/297/80 175/274/80 176/275/80 

vt -275.591 8.52651e-14
vn 1 3.60956e-16 -0
v 0.5 -7.21911e-16 -1.7
vt -267.717 8.52651e-14
v 0.5 4 -1.7
f 174/298/81 177/299/81 178/270/81 175/271/81 

vt 314.961 -2.84217e-14
vn 4.33147e-15 1.52699e-30 -1
v -0.5 -1.08287e-15 -1.7
vt 354.331 -4.26326e-14
v -0.5 4 -1.7
f 177/300/82 179/301/82 180/266/82 178/267/82 

vt 267.717 8.52651e-14
vn -1 -3.60956e-16 -0
vt 275.591 8.52651e-14
f 179/302/83 173/303/83 176/278/83 180/279/83 

